<svg version="1.1" xmlns="http://www.w3.org/2000/svg" xmlns:xlink="http://www.w3.org/1999/xlink" x="0px" y="0px" width="122px" height="122px" viewBox="0 0 122 122" enable-background="new 0 0 122 122" xml:space="preserve">
	<circle fill="transparent" stroke="#4766A7" stroke-miterlimit="10" cx="62" cy="62" r="59.562"></circle>
	<circle fill="transparent" stroke="#758CBE" stroke-miterlimit="10" cx="62" cy="61.667" r="57.229"></circle>
	<circle fill="transparent" stroke="#375A9C" stroke-miterlimit="10" cx="62" cy="62" r="44.563"></circle>
	<polygon fill="#093186" points="64.523,22.697 71.261,33.066 39.582,77.23 24.492,77.23 	"></polygon>
	<path fill="#01A9E7" d="M56.658,59.814c0,0,21.917-4.584,24.833,17.416h19l-27-40.292L56.658,59.814z"></path>
		<path fill="#093389" d="M47.117,94.116h-2.592v-4.654c-0.947,0.422-2.064,0.734-3.349,0.936v-1.121
			c0.676-0.105,1.412-0.305,2.205-0.6c0.793-0.294,1.337-0.638,1.633-1.03h2.104V94.116z"></path>
		<path fill="#093389" d="M51.047,92.626l2.509-0.132c0.062,0.243,0.222,0.423,0.48,0.541s0.6,0.176,1.024,0.176
			c0.535,0,0.99-0.117,1.366-0.352c0.375-0.234,0.615-0.721,0.719-1.459c-0.652,0.36-1.467,0.541-2.445,0.541
			c-1.064,0-1.982-0.196-2.754-0.586c-0.772-0.392-1.158-0.9-1.158-1.527c0-0.653,0.407-1.18,1.223-1.58
			c0.815-0.399,1.853-0.6,3.113-0.6c1.372,0,2.497,0.253,3.377,0.758c0.879,0.506,1.319,1.337,1.319,2.494
			c0,1.178-0.458,2.027-1.375,2.549s-2.109,0.782-3.58,0.782c-1.058,0-1.913-0.134-2.564-0.402
			C51.65,93.561,51.232,93.16,51.047,92.626z M56.915,89.928c0-0.398-0.192-0.708-0.577-0.927s-0.829-0.33-1.333-0.33
			c-0.48,0-0.878,0.09-1.195,0.27c-0.317,0.181-0.475,0.476-0.475,0.886c0,0.416,0.172,0.722,0.517,0.916
			c0.344,0.195,0.775,0.292,1.292,0.292c0.499,0,0.918-0.094,1.259-0.281S56.915,90.292,56.915,89.928z"></path>
		<path fill="#093389" d="M61.537,92.459l2.583-0.127c0.073,0.278,0.292,0.499,0.655,0.661c0.362,0.163,0.78,0.244,1.254,0.244
			c0.542,0,1-0.104,1.375-0.314c0.375-0.209,0.563-0.525,0.563-0.947c0-0.396-0.186-0.692-0.558-0.89
			c-0.372-0.197-0.856-0.296-1.453-0.296c-0.744,0-1.412,0.157-2.002,0.47l-2.104-0.145l1.328-3.353h6.855v1.156h-4.89l-0.406,1.094
			c0.578-0.138,1.168-0.207,1.771-0.207c1.149,0,2.125,0.199,2.924,0.598c0.8,0.398,1.2,0.916,1.2,1.551
			c0,0.53-0.323,1.003-0.969,1.419c-0.88,0.568-2.101,0.853-3.663,0.853c-1.249,0-2.267-0.16-3.054-0.479
			S61.691,92.999,61.537,92.459z"></path>
		<path fill="#093389" d="M76.39,87.647c1.311,0,2.334,0.223,3.072,0.668c0.88,0.527,1.319,1.402,1.319,2.624
			c0,1.219-0.442,2.095-1.328,2.628c-0.732,0.439-1.753,0.659-3.063,0.659c-1.316,0-2.377-0.241-3.183-0.723
			c-0.806-0.481-1.209-1.341-1.209-2.577c0-1.213,0.443-2.086,1.329-2.619C74.059,87.867,75.081,87.647,76.39,87.647z M76.39,88.671
			c-0.313,0-0.594,0.048-0.839,0.143c-0.246,0.095-0.438,0.266-0.572,0.512c-0.179,0.319-0.268,0.857-0.268,1.613
			s0.08,1.275,0.24,1.558c0.159,0.283,0.36,0.471,0.604,0.564s0.521,0.141,0.835,0.141c0.314,0,0.594-0.047,0.84-0.143
			s0.437-0.266,0.572-0.512c0.178-0.316,0.268-0.853,0.268-1.608s-0.08-1.275-0.24-1.558c-0.16-0.282-0.361-0.471-0.604-0.566
			S76.705,88.671,76.39,88.671z"></path>
		<path fill="#D10F1A" d="M29.403,99.445c-0.603,0.145-0.697,0.172-0.694,0.353c0.009,0.186-0.095,0.25-0.291,0.065
			c-0.298-0.276-0.829-0.712-1.454-1.144c-0.292,0.329-0.575,0.636-0.746,0.828c-0.542,0.598-1.454,1.456-1.711,1.629
			c-0.287,0.191-0.369,0.063-0.192-0.203c0.096-0.147,0.454-0.576,0.714-0.856c0.616-0.655,1.082-1.154,1.545-1.676
			c-0.452-0.313-0.883-0.639-1.199-0.908c-0.256,0.262-0.382,0.261-0.413,0.112c-0.042-0.148-0.03-0.216,0.269-0.617
			c0.381-0.508,0.553-0.845,0.595-1.063c0.057-0.272,0.065-0.387,0.083-0.537c0.015-0.199,0.149-0.169,0.308,0.071
			c0.082,0.117,0.137,0.199,0.173,0.275c0.383,0.273,0.721,0.506,1.563,1.086c0.584-0.672,0.9-1.081,0.914-1.448
			c0.015-0.265,0.133-0.293,0.395,0.051c0.399,0.531,0.305,0.637,0.068,0.772c-0.19,0.108-0.386,0.291-0.95,0.914
			c1.007,0.692,1.292,0.879,1.35,0.907c0.319,0.149,0.352,0.179,0.53,0.615c0.265,0.657,0.203,0.791-0.111,0.701
			C30.033,99.336,29.698,99.374,29.403,99.445z M27.787,97.047c-0.503-0.347-1.037-0.698-1.394-0.937
			c-0.168,0.308-0.54,0.856-0.863,1.248c0.518,0.37,0.913,0.642,1.232,0.869C27.079,97.886,27.404,97.507,27.787,97.047z
			 M29.291,98.134c-0.156-0.138-0.578-0.434-1.082-0.792c-0.267,0.287-0.663,0.735-1.051,1.158c0.518,0.37,0.709,0.495,0.874,0.608
			c0.209,0.142,0.397,0.219,0.72,0.038c0.299-0.169,0.413-0.269,0.586-0.426C29.551,98.521,29.589,98.387,29.291,98.134z"></path>
		<path fill="#D10F1A" d="M36.949,103.944c-0.939,1.62-1.46,2.481-1.731,2.871c-0.343,0.501-0.596,0.655-0.925,0.8
			c-0.262,0.118-0.351,0.032-0.283-0.202c0.061-0.207,0.074-0.387,0.041-0.704c-0.028-0.245-0.073-0.383-0.21-0.491
			c-0.339-0.257-1.464-0.909-2.115-1.228c-0.37-0.178-0.67-0.381-0.967-0.66c-0.518,0.567-0.626,0.527-0.573,0.107
			c0.029-0.238,0.179-0.518,0.494-0.819c0.253-0.232,0.988-1.185,1.334-1.724c0.819-1.292,0.984-1.66,0.948-1.94
			s0.101-0.301,0.547,0.222c0.274,0.166,0.672,0.382,1.087,0.569c0.4,0.178,1.07,0.498,1.379,0.657
			c0.442,0.225,0.993,0.459,1.141,0.485c0.155,0.03,0.385,0.217,0.565,0.609c0.203,0.437,0.188,0.525-0.059,0.653
			C37.371,103.286,37.241,103.439,36.949,103.944z M36.947,102.934c0.218-0.452,0.17-0.553-0.173-0.772
			c-0.321-0.206-1.06-0.61-2.031-1.056c-0.719-0.322-1.083-0.526-1.326-0.692c-0.776,1.241-1.729,2.646-2.539,3.776
			c0.502,0.323,1.274,0.759,2.425,1.289c0.893,0.424,0.94,0.494,0.997,0.936c0.043,0.285,0.177,0.302,0.341,0.109
			c0.453-0.529,0.825-1.012,1.257-1.702C36.235,104.266,36.766,103.312,36.947,102.934z M34.424,105.308
			c-0.333-0.283-1.277-0.849-1.918-1.102c-0.519-0.203-0.576-0.241-0.712-0.447c-0.17-0.247-0.099-0.311,0.168-0.149
			c0.136,0.078,0.641,0.333,1.129,0.566l0.689-0.961c-0.274-0.136-0.498-0.269-0.587-0.337c-0.23-0.187-0.158-0.299-0.025-0.233
			c0.112,0.052,0.468,0.201,0.776,0.33c0.256-0.35,0.365-0.615,0.402-0.818c-0.404-0.221-0.584-0.355-0.652-0.459
			c-0.119-0.185-0.052-0.24,0.15-0.121c0.128,0.073,1.036,0.438,1.209,0.489c0.499,0.152,0.775,0.3,0.9,0.44
			c0.159,0.17,0.091,0.324-0.31,0.195c-0.349-0.115-0.724-0.267-1.046-0.424c0.18,0.313,0.164,0.353,0.05,0.468
			c-0.076,0.069-0.144,0.144-0.312,0.373c0.434,0.109,0.548,0.173,0.736,0.344c0.181,0.166,0.122,0.275-0.141,0.235
			c-0.155-0.03-0.475-0.157-0.797-0.313l-0.704,0.952c0.24,0.123,0.44,0.212,0.578,0.271c0.511,0.229,0.712,0.349,0.819,0.506
			C35.107,105.528,34.924,105.717,34.424,105.308z M34.656,104.578c-0.068-0.152-0.138-0.346-0.186-0.544
			c-0.031-0.129,0.067-0.185,0.187-0.068c0.301,0.302,0.412,0.452,0.349,0.629C34.903,104.834,34.76,104.802,34.656,104.578z"></path>
		<path fill="#D10F1A" d="M42.542,110.697c-0.191-0.544-0.716-2.498-0.998-3.705c-1.095,0.939-2.461,1.635-4.107,1.559
			c-0.396-0.025-0.384-0.184,0.062-0.209c0.939-0.056,2.42-0.621,3.472-1.552c1.023-0.907,1.259-1.321,1.277-1.604
			c0.024-0.342,0.164-0.426,0.517-0.039c0.374,0.424,0.332,0.586,0.059,0.695c-0.113,0.042-0.352,0.265-0.569,0.487
			c-0.157,0.168-0.323,0.331-0.493,0.484c0.382,1.195,0.632,1.973,0.883,2.506c0.343,0.736,0.694,1.258,1.658,1.999
			c0.311,0.243,0.281,0.356-0.078,0.248C42.706,111.102,42.674,111.07,42.542,110.697z"></path>
		<path fill="#D10F1A" d="M52.691,114.453c-1.036-0.404-2.024-1.455-2.398-3.127c-0.06-0.271-0.121-0.542-0.152-0.781
			c-0.39-0.009-0.766-0.005-0.935-0.004c-0.197,0.004-0.432-0.026-0.676-0.154c-0.28-0.136-0.27-0.219,0.059-0.174
			c0.233,0.031,0.955,0.033,1.517,0.033c-0.01-0.105-0.014-0.2-0.016-0.304c-0.008-0.19-0.115-0.635-0.263-0.876
			c-0.424-0.017-0.961-0.086-1.351-0.206c-0.301,1.142-0.724,2.571-0.901,3.015c0.335-0.063,1.477-0.241,1.632-0.256
			c0.225-0.014,0.232,0.108,0.04,0.164c-1.33,0.449-1.924,0.698-2.076,0.808c-0.314,0.231-0.404,0.236-0.516-0.082
			c-0.106-0.299-0.038-0.437,0.118-0.492c0.256-0.102,0.386-0.232,0.49-0.481c0.235-0.567,0.711-2.292,0.865-3.195
			c0.074-0.461,0.084-0.689,0.004-0.871c-0.152-0.336-0.006-0.421,0.645,0.027c0.734,0.093,2.178,0.099,2.375,0.025
			c0.287-0.084,0.367-0.082,0.733,0.178c0.515,0.381,0.479,0.492,0.116,0.558c-0.128,0.012-0.399,0.178-0.637,0.386
			c-0.121,0.099-0.126,0.157,0.007,0.267c0.167,0.125,0.091,0.219-0.191,0.167c-0.094-0.014-0.581-0.028-1.129-0.016
			c-0.008-0.002-0.026,0.002-0.043-0.002c0.521,0.245,0.565,0.358,0.495,0.539c-0.042,0.101-0.058,0.388-0.044,0.631
			c0.118-0.006,0.225-0.006,0.289-0.017c0.915-0.096,1.019-0.079,1.236,0.051c0.319,0.196,0.268,0.338-0.323,0.307
			c-0.133-0.006-0.638-0.017-1.162-0.023c0.199,1.211,0.864,2.347,1.52,2.847c0.528,0.401,0.57,0.412,1.147-0.544
			c0.161-0.261,0.239-0.216,0.172-0.01c-0.097,0.293-0.219,1.171-0.203,1.405C53.165,114.524,53.082,114.607,52.691,114.453z
			 M50.716,107.818c-0.929-0.001-1.388-0.019-1.958-0.096c-0.049,0.244-0.127,0.567-0.223,0.93c0.486,0.092,1.188,0.141,1.842,0.128
			c0.419-0.002,0.443-0.029,0.737-0.583C51.287,107.853,51.261,107.813,50.716,107.818z"></path>
		<path fill="#D10F1A" d="M60.789,114.969c-0.449-0.05-0.541-0.106-0.849-0.521c-0.621-0.778-0.965-1.304-1.485-2.393
			c-0.398,1.289-1.212,2.189-2.904,2.4c-0.281,0.029-0.31-0.048-0.024-0.152c1.311-0.446,2.392-1.211,2.641-3.061
			c-0.351,0.033-0.685,0.084-0.984,0.129c-0.458,0.084-0.621,0.056-0.88-0.08c-0.293-0.155-0.307-0.215,0.061-0.238
			c0.444-0.018,1.17-0.082,1.845-0.149c0.162-1.506,0.117-1.96-0.047-2.222c-0.272-0.429-0.02-0.443,0.502-0.223
			c0.414,0.172,0.486,0.27,0.353,0.535c-0.062,0.119-0.101,0.301-0.318,1.853c0.578-0.067,1.044-0.133,1.229-0.178
			c0.576-0.15,0.966-0.13,1.198,0.028c0.449,0.282,0.409,0.479-0.189,0.445c-0.666-0.04-1.502-0.018-2.29,0.043
			c-0.03,0.182-0.059,0.337-0.096,0.493c0.328,0.624,0.691,1.134,1.062,1.544c0.673,0.758,1.427,1.138,2.667,1.536
			c0.314,0.098,0.332,0.224,0.009,0.233C61.567,115.008,61.09,114.999,60.789,114.969z"></path>
		<path fill="#D10F1A" d="M69.292,110.599c-0.314,0.175-0.354,0.12-0.176-0.166c0.344-0.546,0.35-0.663-0.025-0.666
			c-0.279-0.004-1.896,0.291-2.643,0.486c-0.831,0.221-1.147,0.279-1.534,0.253c-0.028,0.312-0.19,0.756-0.368,1.066
			c-0.164,0.276-0.311,0.275-0.41,0.068c-0.078-0.159-0.094-0.383-0.041-0.473c0.291-0.54,0.373-0.758,0.41-0.987
			c0.043-0.255,0.162-0.293,0.382,0.145c1.112-0.201,2.085-0.411,2.868-0.577c0.408-1.021,0.439-1.559,0.359-1.743
			c-0.104-0.24-0.076-0.31,0.41-0.151c0.524,0.171,0.496,0.316,0.318,0.46c-0.142,0.14-0.452,0.591-0.841,1.375
			c0.426-0.086,0.979-0.22,1.021-0.232c0.351-0.153,0.55-0.158,0.987,0.105c0.596,0.364,0.668,0.641,0.329,0.65
			C70.21,110.218,69.646,110.395,69.292,110.599z M69.785,112.328c-0.202-0.021-0.764,0.021-2.033,0.229
			c0.105,0.332,0.174,0.743,0.22,1.181c0.05,0.464-0.05,1.025-0.358,1.501c-0.143,0.216-0.281,0.222-0.455,0.056
			c-0.23-0.201-0.545-0.452-0.695-0.554c-0.195-0.13-0.179-0.216,0.093-0.202c0.72,0.042,0.81-0.018,0.896-0.528
			c0.076-0.442,0.021-0.972-0.109-1.385c-0.461,0.082-1.117,0.234-2.184,0.555c-0.277,0.088-0.484,0.102-0.761-0.028
			c-0.258-0.141-0.253-0.258,0.007-0.269c0.277-0.013,1.654-0.273,2.84-0.523c-0.08-0.176-0.17-0.291-0.272-0.355
			c-0.104-0.081-0.173-0.149-0.161-0.2c0.021-0.062,0.218-0.09,0.416-0.036c0.225-0.266,0.369-0.474,0.447-0.632
			c0.063-0.157-0.018-0.249-0.177-0.199c-0.405,0.127-0.981,0.371-1.104,0.451c-0.162,0.108-0.431,0.128-0.579,0.044
			c-0.336-0.216-0.294-0.313-0.002-0.352c0.817-0.103,1.386-0.254,1.708-0.438c0.271-0.154,0.305-0.149,0.598,0.063
			c0.509,0.364,0.475,0.452,0.189,0.557c-0.176,0.061-0.48,0.243-0.895,0.612c0.088,0.091,0.172,0.225,0.24,0.4
			c0.875-0.158,1.366-0.285,1.545-0.337c0.533-0.14,0.906-0.162,1.171-0.039C70.828,112.118,70.727,112.405,69.785,112.328z
			 M65.646,109.577c-0.155-0.15-0.344-0.448-0.514-0.832c-0.079-0.168-0.024-0.231,0.174-0.169c0.469,0.144,0.746,0.549,0.736,0.784
			C66.036,109.636,65.839,109.765,65.646,109.577z M66.789,109.173c-0.145-0.22-0.281-0.522-0.399-0.828
			c-0.073-0.201,0.009-0.26,0.209-0.164c0.532,0.237,0.644,0.476,0.606,0.881C67.179,109.316,66.954,109.415,66.789,109.173z"></path>
		<path fill="#D10F1A" d="M74.17,108.615c-0.032,0.077,0.005,0.179,0.114,0.278c0.525,0.489,0.59,0.748,0.545,1.071
			c-0.023,0.17-0.135,0.228-0.234,0.16c-0.229-0.135-0.357-0.184-0.592-0.246c-0.154-0.035-0.135-0.093-0.009-0.128
			c0.36-0.093,0.392-0.171,0.335-0.31c-0.055-0.132-0.203-0.34-0.273-0.433c-0.121-0.138-0.158-0.205-0.127-0.353
			c0.031-0.173,0.049-0.436,0.061-0.681c0.009-0.158-0.044-0.187-0.142-0.116c-0.329,0.24-0.499,0.305-0.7,0.361
			c0.354,1.126,0.731,2.529,0.959,3.562c0.202,0.909,0.235,1.124,0.214,1.337c-0.026,0.292-0.177,0.361-0.438-0.057
			c-0.198-0.315-0.227-0.42-0.158-0.846c0.038-0.217-0.217-1.604-0.674-3.097c-0.135-0.445-0.264-0.711-0.369-0.768
			c-0.271-0.156-0.213-0.302,0.322-0.263c0.238-0.076,0.547-0.267,0.771-0.555c0.131-0.175,0.277-0.233,0.557-0.174
			c0.396,0.069,0.416,0.202,0.245,0.396C74.489,107.86,74.417,107.958,74.17,108.615z M75.876,108.21
			c-0.059,0.465-0.133,0.84-0.215,1.156c0.23,0.116,0.271,0.226,0.349,0.566c0.093,0.389,0.317,1.222,0.419,1.582
			c0.156,0.551,0.182,0.803,0.15,0.949c-0.035,0.191-0.121,0.241-0.307,0.034c-0.219-0.266-0.258-0.409-0.271-0.906
			c0.002-0.183-0.084-0.649-0.18-1.08c-0.09-0.415-0.164-0.644-0.248-0.818c-0.218,0.665-0.486,1.06-0.795,1.467
			c-0.178,0.231-0.234,0.126-0.115-0.089c0.406-0.735,0.715-1.591,0.764-2.57c0.027-0.604-0.02-0.996-0.125-1.147
			c-0.169-0.246-0.015-0.401,0.385-0.264c0.328,0.106,0.387,0.219,0.338,0.396C75.997,107.581,75.906,107.96,75.876,108.21z
			 M79.127,108.234c-0.394,0.103-0.718,0.202-1.042,0.328c0.241,0.795,0.657,2.075,0.88,2.677c0.165,0.428,0.157,0.879,0.026,1.21
			c-0.072,0.192-0.135,0.193-0.273,0.085c-0.254-0.195-0.563-0.394-0.88-0.563c-0.159-0.085-0.12-0.165,0.095-0.174
			c0.502-0.012,0.602-0.074,0.55-0.318c-0.09-0.415-0.331-1.339-0.743-2.768c-0.281,0.122-0.581,0.276-0.948,0.475
			c-0.255,0.149-0.344,0.157-0.545,0.111c-0.23-0.048-0.163-0.127,0.073-0.22c0.17-0.065,0.805-0.374,1.34-0.646
			c-0.324-1.091-0.525-1.578-0.824-1.907c-0.219-0.231-0.134-0.377,0.375-0.296c0.451,0.063,0.516,0.131,0.471,0.42
			c-0.033,0.233,0.063,0.706,0.318,1.609c0.149-0.077,0.275-0.146,0.361-0.188c0.385-0.203,0.619-0.27,0.891-0.2
			C79.494,107.932,79.548,108.124,79.127,108.234z M77.331,110.363c-0.186-0.051-0.391-0.201-0.683-0.438
			c-0.138-0.107-0.129-0.204,0.056-0.223c0.313-0.036,0.672,0.018,0.788,0.209C77.671,110.198,77.506,110.409,77.331,110.363z"></path>
		<path fill="#D10F1A" d="M84.298,103.774c-0.064,0.131-0.041,0.239,0.084,0.263c0.172,0.038,0.185,0.106-0.043,0.231
			c-0.174,0.101-0.785,0.554-1.135,0.81c-0.503,0.376-0.732,0.502-1.063,0.631c0.191,0.634,0.292,1.256,0.328,1.863
			c0.062,1.229-0.11,2.311-0.688,3.307c-0.193,0.321-0.295,0.269-0.148-0.132c0.354-0.983,0.525-2.146,0.438-3.023
			c-0.126-1.391-0.605-2.596-0.799-2.762c-0.238-0.2-0.203-0.29,0.466-0.293c0.714-0.438,1.587-1.088,1.724-1.263
			c0.159-0.194,0.246-0.254,0.65-0.27c0.547-0.02,0.574,0.041,0.367,0.313C84.457,103.479,84.363,103.624,84.298,103.774z
			 M83.361,103.839c-0.464,0.337-0.928,0.657-1.502,1.065c0.089,0.188,0.165,0.391,0.229,0.627c0.299-0.159,0.615-0.382,1.321-0.917
			c0.461-0.346,0.485-0.376,0.435-0.664C83.779,103.568,83.75,103.564,83.361,103.839z M87.783,107.784
			c0.16,0.402,0.199,0.788,0.133,1.076c-0.076,0.329-0.181,0.37-0.416,0.278c-0.143-0.061-0.727-0.244-0.811-0.26
			c-0.275-0.054-0.245-0.133-0.07-0.169c0.709-0.142,0.742-0.193,0.701-0.587c-0.039-0.267-0.219-0.788-0.343-1.014
			c-0.188-0.361-0.259-0.347-0.86-0.017c-0.213,0.118-0.67,0.408-1.181,0.749l0.25,0.635l0.655-0.502
			c-0.057-0.037-0.104-0.079-0.152-0.12c-0.098-0.083-0.061-0.146,0.055-0.146c0.493-0.012,0.689,0.079,0.811,0.335
			c0.105,0.226,0.007,0.3-0.213,0.22c-0.135-0.038-0.271-0.129-0.398-0.216c-0.568,0.543-0.932,0.916-1.092,1.165
			c-0.18,0.27-0.27,0.303-0.605,0.157c-0.219-0.098-0.203-0.169,0.003-0.258c0.138-0.056,0.362-0.189,0.699-0.449l-0.276-0.649
			c-0.463,0.301-0.938,0.616-1.309,0.864c0.127,0.188,0.205,0.316,0.349,0.58c0.193,0.349,0.292,0.54,0.354,0.75
			c0.069,0.271-0.063,0.352-0.229,0.246c-0.188-0.113-0.266-0.26-0.318-0.511c-0.041-0.173-0.43-0.834-0.587-0.943
			c-0.239-0.163-0.239-0.245,0.292-0.34c0.004,0.008,0.021,0.046,0.021,0.046c0.35-0.213,0.826-0.565,1.34-0.898l-0.242-0.557
			c-0.182,0.123-0.367,0.257-0.558,0.383c0.06,0.128-0.001,0.201-0.097,0.184c-0.043-0.009-0.154-0.084-0.291-0.212
			c-0.113-0.121-0.432-0.329-0.642-0.368c-0.118-0.026-0.138-0.109-0.017-0.157c0.113-0.044,0.2-0.085,0.288-0.099
			c0.253-0.156,0.583-0.395,0.891-0.613c-0.125-0.225-0.24-0.391-0.371-0.485c-0.175,0.138-0.326,0.245-0.469,0.331
			c-0.2,0.122-0.265,0.005-0.093-0.14c0.238-0.205,0.645-0.606,0.834-0.871c0.156-0.201,0.223-0.324,0.24-0.388
			c0.018-0.064,0.059-0.102,0.444-0.155c0.349-0.054,0.421,0.078,0.212,0.249c-0.074,0.063-0.479,0.363-0.547,0.423
			c-0.164,0.161-0.309,0.283-0.429,0.395c0.329-0.035,0.382,0.014,0.421,0.179c0.006,0.034,0.033,0.112,0.074,0.222
			c0.377-0.278,0.668-0.517,0.709-0.572c0.105-0.142,0.207-0.19,0.561-0.236c0.42-0.061,0.488,0.044,0.362,0.224
			c-0.131,0.189-0.237,0.35-0.267,0.492c-0.014,0.071,0.006,0.135,0.088,0.169c0.1,0.046,0.117,0.084-0.111,0.209
			c-0.074,0.045-0.479,0.308-0.961,0.646l0.233,0.578c0.72-0.468,1.393-0.932,1.575-1.11c0.193-0.182,0.225-0.197,0.534-0.169
			c0.599,0.048,0.681,0.184,0.62,0.378C87.482,106.981,87.515,107.13,87.783,107.784z M84.006,106.536
			c-0.228,0.171-0.515,0.372-0.737,0.513c0.156,0.129,0.322,0.298,0.42,0.426c0.227-0.152,0.424-0.282,0.586-0.386
			C84.185,106.874,84.095,106.686,84.006,106.536z M84.887,105.882c-0.154,0.081-0.349,0.219-0.579,0.42
			c0.064,0.18,0.156,0.395,0.24,0.593c0.57-0.397,0.658-0.494,0.666-0.58c0.02-0.12-0.025-0.3-0.061-0.394
			C85.101,105.79,85.059,105.782,84.887,105.882z"></path>
		<path fill="#D10F1A" d="M93.394,100.593c-0.01,0.618-0.006,0.716,0.169,0.758c0.183,0.037,0.22,0.152-0.009,0.297
			c-0.342,0.222-0.894,0.627-1.467,1.125c0.248,0.364,0.474,0.713,0.619,0.927c0.445,0.671,1.053,1.765,1.156,2.056
			c0.115,0.324-0.031,0.372-0.245,0.136c-0.118-0.13-0.446-0.58-0.653-0.901c-0.482-0.757-0.851-1.33-1.242-1.908
			c-0.416,0.362-0.836,0.698-1.177,0.938c0.191,0.312,0.159,0.435,0.007,0.427c-0.154,0.004-0.215-0.024-0.531-0.412
			c-0.397-0.493-0.682-0.742-0.883-0.837c-0.25-0.121-0.357-0.158-0.5-0.213c-0.188-0.063-0.127-0.186,0.146-0.279
			c0.133-0.05,0.228-0.083,0.31-0.1c0.359-0.304,0.668-0.573,1.438-1.246c-0.508-0.73-0.824-1.137-1.177-1.239
			c-0.253-0.079-0.251-0.2,0.146-0.37c0.612-0.255,0.691-0.139,0.765,0.123c0.06,0.211,0.188,0.445,0.652,1.145
			c0.92-0.805,1.171-1.036,1.212-1.083c0.224-0.272,0.26-0.297,0.728-0.363c0.701-0.094,0.817-0.002,0.652,0.28
			C93.443,99.957,93.397,100.29,93.394,100.593z M90.671,101.567c-0.461,0.401-0.933,0.833-1.252,1.119
			c0.256,0.237,0.697,0.732,0.996,1.142c0.486-0.41,0.848-0.727,1.146-0.979C91.308,102.458,91.021,102.051,90.671,101.567z
			 M92.096,100.379c-0.173,0.116-0.563,0.451-1.034,0.852c0.211,0.328,0.548,0.823,0.862,1.302c0.487-0.41,0.653-0.564,0.806-0.696
			c0.189-0.169,0.31-0.331,0.215-0.688c-0.09-0.331-0.159-0.465-0.27-0.672C92.535,100.222,92.414,100.153,92.096,100.379z"></path>
		<path fill="#D10F1A" d="M95.957,96.555c-0.215-0.028-0.544-0.156-0.908-0.361c-0.164-0.087-0.158-0.171,0.038-0.239
			c0.46-0.164,0.926-0.005,1.058,0.189C96.304,96.37,96.224,96.59,95.957,96.555z M99.488,95.199
			c-0.146,0.326-0.211,0.308-0.238-0.029c-0.05-0.644-0.115-0.741-0.418-0.519c-0.227,0.163-1.348,1.364-1.828,1.967
			c-0.535,0.674-0.754,0.909-1.079,1.118c0.163,0.268,0.298,0.72,0.342,1.075c0.034,0.318-0.086,0.406-0.29,0.3
			c-0.156-0.081-0.303-0.252-0.313-0.354c-0.089-0.608-0.153-0.831-0.262-1.038c-0.116-0.229-0.045-0.331,0.393-0.111
			c0.772-0.825,1.426-1.573,1.955-2.175c-0.283-1.063-0.578-1.513-0.752-1.612c-0.227-0.13-0.246-0.202,0.239-0.366
			c0.521-0.176,0.585-0.042,0.528,0.179c-0.029,0.197-0.01,0.743,0.146,1.604c0.291-0.324,0.654-0.761,0.681-0.796
			c0.189-0.332,0.347-0.455,0.854-0.505c0.693-0.064,0.918,0.115,0.652,0.325C99.998,94.344,99.65,94.823,99.488,95.199z
			 M96.631,95.548c-0.247-0.089-0.538-0.251-0.813-0.425c-0.18-0.117-0.15-0.213,0.069-0.257c0.565-0.127,0.8-0.002,1.012,0.345
			C97.029,95.43,96.908,95.644,96.631,95.548z M100.916,96.29c-0.174,0.104-0.6,0.474-1.492,1.397
			c0.282,0.203,0.582,0.492,0.881,0.816c0.314,0.342,0.571,0.851,0.607,1.415c0.015,0.259-0.093,0.347-0.332,0.317
			c-0.305-0.023-0.707-0.038-0.887-0.029c-0.235,0.013-0.271-0.065-0.047-0.217c0.602-0.396,0.639-0.497,0.402-0.958
			c-0.203-0.4-0.564-0.792-0.914-1.045c-0.322,0.342-0.756,0.854-1.418,1.748c-0.172,0.236-0.33,0.371-0.628,0.431
			c-0.292,0.042-0.357-0.055-0.155-0.219c0.216-0.176,1.162-1.206,1.965-2.114c-0.168-0.094-0.311-0.132-0.431-0.123
			c-0.132-0.003-0.228-0.017-0.249-0.064c-0.02-0.062,0.121-0.202,0.313-0.276c0.021-0.348,0.013-0.6-0.018-0.774
			c-0.045-0.163-0.164-0.189-0.262-0.054c-0.25,0.344-0.566,0.884-0.616,1.02c-0.065,0.186-0.27,0.361-0.438,0.382
			c-0.398,0.028-0.422-0.075-0.211-0.28c0.595-0.57,0.96-1.031,1.106-1.369c0.126-0.286,0.157-0.304,0.519-0.308
			c0.625-0.012,0.65,0.079,0.482,0.333c-0.104,0.154-0.239,0.481-0.352,1.025c0.125,0.021,0.271,0.077,0.434,0.177
			c0.605-0.647,0.924-1.043,1.035-1.191c0.346-0.431,0.631-0.671,0.917-0.731C101.625,95.5,101.715,95.79,100.916,96.29z"></path>
	<path display="inline" fill="none" d="M59.065,114.906c-33.222-1.816-58.463-33.429-56.43-70.627
		C4.666,7.105,33.202-21.59,66.422-19.773c33.216,1.813,58.472,33.447,56.438,70.62C120.83,88.047,92.28,116.722,59.065,114.906z"></path>
			<path fill="#17408F" d="M12.873,81.019l0.659,1.518l4.884-2.125l0.37,0.851l-4.884,2.125l0.657,1.51l-0.726,0.316l-1.688-3.879
			L12.873,81.019z"></path>
		<path fill="#17408F" d="M16.435,74.954l0.292,0.881l-2.445,0.81c-0.601,0.199-1.033,0.57-0.837,1.162
			c0.144,0.433,0.653,0.778,1.284,0.569l2.559-0.848l0.292,0.881l-6.091,2.018l-0.292-0.881l2.477-0.82l-0.005-0.016
			c-0.524-0.13-0.908-0.525-1.059-0.98c-0.209-0.63-0.025-1.5,1.296-1.938L16.435,74.954z"></path>
		<path fill="#17408F" d="M15.269,70.83c0.211,0.272,0.438,0.721,0.573,1.307c0.299,1.296-0.396,2.244-1.706,2.546
			c-1.28,0.295-2.468-0.187-2.749-1.404c-0.277-1.209,0.617-1.926,1.678-2.17c0.148-0.034,0.275-0.056,0.389-0.064l0.63,2.73
			c0.961-0.246,1.189-0.932,1.033-1.61c-0.109-0.476-0.271-0.784-0.453-1.038L15.269,70.83z M12.998,72.028
			c-0.517,0.11-1.107,0.469-0.948,1.164c0.153,0.662,0.874,0.792,1.384,0.724L12.998,72.028z"></path>
		<path fill="#17408F" d="M14.582,63.749l0.083,0.925l-2.771,0.249l0.225,2.486l2.772-0.251l0.082,0.924l-6.1,0.551l-0.084-0.924
			l2.518-0.228l-0.225-2.484l-2.518,0.227L8.481,64.3L14.582,63.749z"></path>
		<path fill="#17408F" d="M9.505,62.212c0.004,0.318-0.234,0.537-0.529,0.541c-0.313,0.003-0.546-0.219-0.55-0.538
			s0.227-0.538,0.538-0.541C9.26,61.671,9.501,61.876,9.505,62.212z M14.583,61.693l0.01,0.928l-4.411,0.047l-0.01-0.928
			L14.583,61.693z"></path>
		<path fill="#17408F" d="M10.384,56.659c0.311,0.043,0.676,0.081,1.268,0.116l2.507,0.151c0.878,0.053,2.495,0.223,2.369,2.307
			c-0.03,0.512-0.174,1.04-0.402,1.371l-0.707-0.252c0.177-0.262,0.354-0.675,0.383-1.171c0.044-0.718-0.324-1.253-1.322-1.313
			l-0.423-0.025l-0.002,0.016c0.361,0.246,0.608,0.694,0.573,1.261c-0.063,1.038-1.024,1.693-2.253,1.619
			c-1.493-0.09-2.269-1.042-2.212-2.001c0.04-0.654,0.397-1.002,0.76-1.164l0.001-0.017l-0.589-0.075L10.384,56.659z M12.027,57.728
			c-0.583-0.035-1.086,0.319-1.119,0.887c-0.039,0.639,0.541,1.123,1.483,1.18c0.862,0.052,1.501-0.303,1.542-0.989
			c0.029-0.479-0.31-0.979-1.044-1.024L12.027,57.728z"></path>
		<path fill="#17408F" d="M15.471,52.32l-0.146,0.916l-2.543-0.407c-0.624-0.1-1.179,0.03-1.278,0.646
			c-0.071,0.45,0.223,0.991,0.878,1.097l2.661,0.426l-0.146,0.916l-6.332-1.014l0.146-0.916l2.573,0.412l0.003-0.016
			c-0.404-0.356-0.563-0.884-0.487-1.357c0.104-0.656,0.668-1.344,2.042-1.123L15.471,52.32z"></path>
		<path fill="#17408F" d="M11.97,45.367c-0.165,0.159-0.426,0.483-0.57,0.966c-0.205,0.698,0.114,1.109,0.491,1.222
			c0.499,0.146,0.842-0.11,1.383-0.759c0.694-0.821,1.342-1.122,2.146-0.884c0.982,0.29,1.504,1.237,1.114,2.557
			c-0.164,0.552-0.498,1.087-0.773,1.313l-0.685-0.419c0.284-0.258,0.578-0.688,0.722-1.171c0.206-0.698-0.039-1.196-0.568-1.353
			c-0.498-0.147-0.895,0.061-1.392,0.673c-0.611,0.77-1.315,1.205-2.113,0.968c-0.928-0.274-1.406-1.224-1.062-2.391
			c0.166-0.56,0.428-0.94,0.634-1.155L11.97,45.367z"></path>
		<path fill="#17408F" d="M18.291,42.794c0.014,0.229-0.018,0.662-0.202,1.139c-0.46,1.186-1.572,1.646-2.854,1.148
			c-1.244-0.482-1.872-1.65-1.36-2.971c0.153-0.396,0.383-0.7,0.542-0.845l0.597,0.429c-0.132,0.12-0.314,0.324-0.45,0.674
			c-0.313,0.805,0.171,1.507,0.976,1.819c0.901,0.35,1.644,0.028,1.921-0.688c0.133-0.343,0.144-0.612,0.137-0.839L18.291,42.794z"></path>
		<path fill="#17408F" d="M20.301,38.918l-0.409,0.833l-2.313-1.134c-0.567-0.278-1.136-0.316-1.41,0.243
			c-0.201,0.41-0.078,1.014,0.518,1.305l2.421,1.188l-0.409,0.833l-5.76-2.823l0.408-0.834l2.342,1.147l0.008-0.014
			c-0.283-0.459-0.28-1.01-0.069-1.441c0.292-0.597,1.032-1.088,2.281-0.476L20.301,38.918z"></path>
		<path fill="#17408F" d="M20.888,33.597c1.403,0.863,1.42,2.131,0.9,2.976c-0.599,0.974-1.771,1.276-2.982,0.53
			c-1.266-0.779-1.503-1.994-0.892-2.989C18.547,33.085,19.738,32.89,20.888,33.597z M18.491,34.505
			c-0.416,0.674,0.147,1.377,0.794,1.775c0.735,0.452,1.568,0.486,1.924-0.093c0.353-0.572-0.049-1.308-0.798-1.768
			C19.791,34.039,18.896,33.845,18.491,34.505z"></path>
		<path fill="#17408F" d="M23.756,29.747c1.313,0.996,1.208,2.262,0.609,3.053c-0.69,0.913-1.888,1.1-3.023,0.24
			c-1.188-0.898-1.306-2.133-0.6-3.064C21.472,29.012,22.677,28.931,23.756,29.747z M21.277,30.421
			c-0.478,0.632,0.015,1.387,0.621,1.846c0.688,0.521,1.517,0.636,1.928,0.094c0.405-0.536,0.076-1.308-0.626-1.839
			C22.62,30.082,21.747,29.802,21.277,30.421z"></path>
		<path fill="#17408F" d="M26.708,29.797l-0.61,0.7l-4.838-4.219l0.61-0.7L26.708,29.797z"></path>
		<path fill="#17408F" d="M31.924,24.684l-0.72,0.659l-1.623-0.953l-1.38,1.266l0.827,1.683l-0.701,0.644l-2.757-5.775l0.838-0.768
			L31.924,24.684z M28.989,23.967l-1.437-0.854c-0.353-0.219-0.721-0.467-1.039-0.685L26.5,22.438
			c0.189,0.337,0.421,0.731,0.6,1.079l0.727,1.515L28.989,23.967z"></path>
		<path fill="#17408F" d="M29.882,20.738c-0.295-0.38-0.732-0.942-0.645-1.64c0.059-0.42,0.313-0.759,0.597-0.979
			c0.229-0.177,0.439-0.27,0.605-0.317l0.361,0.621c-0.124,0.036-0.257,0.088-0.428,0.221c-0.454,0.354-0.274,0.873,0.089,1.341
			l0.146,0.188l0.767-0.594l0.427,0.551l-0.76,0.589l2.278,2.935l-0.733,0.569l-2.277-2.935l-0.469,0.363l-0.427-0.55L29.882,20.738
			z"></path>
		<path fill="#17408F" d="M32.125,19.055c-0.273-0.394-0.681-0.979-0.556-1.669c0.081-0.416,0.352-0.74,0.647-0.946
			c0.236-0.164,0.452-0.246,0.62-0.284l0.327,0.639c-0.126,0.029-0.261,0.074-0.438,0.197c-0.473,0.328-0.321,0.855,0.017,1.342
			l0.137,0.197l0.795-0.553l0.397,0.572l-0.789,0.547l2.117,3.048l-0.762,0.529l-2.116-3.048l-0.486,0.338l-0.396-0.571
			L32.125,19.055z"></path>
		<path fill="#17408F" d="M34.411,16.719c-0.271,0.169-0.581,0.08-0.737-0.171c-0.165-0.265-0.099-0.58,0.173-0.749
			c0.272-0.169,0.578-0.086,0.742,0.178C34.746,16.228,34.696,16.541,34.411,16.719z M37.494,20.788l-0.787,0.49l-2.334-3.744
			l0.787-0.49L37.494,20.788z"></path>
		<path fill="#17408F" d="M39.272,19.751l-0.806,0.458l-3.167-5.581l0.808-0.457L39.272,19.751z"></path>
		<path fill="#17408F" d="M38.357,14.482c-0.285,0.146-0.586,0.03-0.722-0.233c-0.141-0.277-0.047-0.586,0.237-0.731
			s0.583-0.037,0.725,0.24C38.732,14.021,38.656,14.329,38.357,14.482z M41.084,18.799l-0.825,0.423l-2.01-3.931l0.826-0.422
			L41.084,18.799z"></path>
		<path fill="#17408F" d="M44.483,16.108c0.149,0.344,0.31,0.694,0.476,0.937l-0.771,0.334l-0.263-0.445l-0.021,0.011
			c-0.091,0.414-0.387,0.82-0.893,1.041c-0.757,0.327-1.433-0.043-1.703-0.668c-0.436-1.006,0.223-1.884,1.61-2.486
			c-0.131-0.301-0.391-0.903-1.207-0.55c-0.36,0.155-0.68,0.425-0.863,0.706l-0.422-0.49c0.207-0.308,0.618-0.668,1.162-0.904
			c1.189-0.516,1.86,0.127,2.233,0.986L44.483,16.108z M43.188,15.395c-0.669,0.29-1.386,0.749-1.074,1.469
			c0.194,0.448,0.56,0.526,0.875,0.389c0.463-0.2,0.692-0.718,0.489-1.188L43.188,15.395z"></path>
		<path fill="#17408F" d="M44.342,11.738l0.772-0.575l0.358,1.026l0.99-0.346l0.229,0.657l-0.989,0.346l0.736,2.105
			c0.18,0.514,0.425,0.707,0.794,0.578c0.174-0.061,0.272-0.12,0.367-0.187l0.265,0.661c-0.13,0.113-0.351,0.232-0.646,0.335
			c-0.347,0.122-0.681,0.11-0.933-0.03c-0.29-0.152-0.511-0.465-0.7-1.009l-0.752-2.151l-0.589,0.205l-0.229-0.656l0.589-0.205
			L44.342,11.738z"></path>
		<path fill="#17408F" d="M51.662,14.778c-0.264,0.22-0.704,0.462-1.283,0.617c-1.282,0.344-2.254-0.314-2.603-1.613
			c-0.339-1.268,0.101-2.47,1.307-2.793c1.196-0.32,1.942,0.549,2.225,1.6c0.039,0.146,0.064,0.271,0.077,0.384l-2.703,0.725
			c0.279,0.952,0.972,1.155,1.645,0.976c0.472-0.126,0.772-0.299,1.02-0.488L51.662,14.778z M50.387,12.554
			c-0.129-0.512-0.508-1.09-1.196-0.906c-0.655,0.176-0.761,0.899-0.674,1.406L50.387,12.554z"></path>
		<path fill="#17408F" d="M56.091,12.95c0.067,0.394,0.162,0.855,0.229,1.152l-0.804,0.138l-0.163-0.67l-0.023,0.005
			c-0.153,0.479-0.571,0.883-1.186,0.988c-0.985,0.168-1.883-0.579-2.111-1.919c-0.252-1.474,0.448-2.453,1.418-2.618
			c0.56-0.096,1.005,0.088,1.251,0.387l0.015-0.003l-0.421-2.467l0.914-0.155L56.091,12.95z M54.934,11.679
			c-0.121-0.709-0.642-1.05-1.153-0.963c-0.702,0.12-0.969,0.88-0.823,1.738c0.146,0.852,0.636,1.441,1.329,1.323
			c0.591-0.102,0.889-0.688,0.784-1.294L54.934,11.679z"></path>
		<path fill="#17408F" d="M59.012,8.64l0.902-0.336l0.059,1.085l1.046-0.056l0.036,0.694l-1.046,0.056l0.12,2.228
			c0.028,0.542,0.21,0.796,0.602,0.775c0.183-0.01,0.293-0.04,0.403-0.077l0.07,0.708c-0.157,0.073-0.402,0.126-0.713,0.143
			c-0.367,0.019-0.686-0.084-0.888-0.289c-0.236-0.228-0.36-0.589-0.391-1.163l-0.121-2.275l-0.623,0.033l-0.037-0.694l0.622-0.032
			L59.012,8.64z"></path>
		<path fill="#17408F" d="M65.8,11.557c-0.042,1.647-1.13,2.3-2.121,2.275c-1.144-0.029-1.994-0.891-1.958-2.313
			c0.038-1.487,0.97-2.305,2.138-2.274C65.066,9.274,65.834,10.206,65.8,11.557z M63.81,9.938c-0.793-0.02-1.118,0.82-1.137,1.58
			c-0.022,0.863,0.367,1.602,1.047,1.618c0.672,0.017,1.106-0.7,1.128-1.579C64.867,10.83,64.584,9.958,63.81,9.938z"></path>
		<path fill="#17408F" d="M71.36,11.578c0.424,0.237,0.61,0.704,0.65,1.366c0.057,0.819,0.108,1.467,0.19,1.715l-0.947-0.149
			c-0.061-0.188-0.118-0.739-0.15-1.506c-0.04-0.832-0.283-1.187-0.923-1.288l-0.553-0.088l-0.405,2.561l-0.909-0.144l0.944-5.966
			c0.398-0.01,0.944,0.02,1.489,0.105c0.79,0.125,1.32,0.354,1.646,0.755c0.272,0.326,0.372,0.771,0.295,1.262
			c-0.123,0.774-0.681,1.229-1.325,1.361L71.36,11.578z M70.352,11.038c0.759,0.12,1.301-0.239,1.404-0.888
			c0.124-0.782-0.388-1.139-1.044-1.242c-0.308-0.048-0.533-0.061-0.647-0.046l-0.329,2.078L70.352,11.038z"></path>
		<path fill="#17408F" d="M76.001,15.455c-0.338,0.062-0.84,0.057-1.422-0.093c-1.287-0.329-1.81-1.38-1.477-2.682
			c0.326-1.271,1.299-2.104,2.508-1.794c1.201,0.308,1.426,1.431,1.156,2.484c-0.038,0.147-0.078,0.269-0.121,0.374l-2.712-0.695
			c-0.224,0.967,0.279,1.484,0.955,1.657c0.472,0.121,0.819,0.118,1.128,0.074L76.001,15.455z M75.981,12.89
			c0.14-0.51,0.094-1.198-0.597-1.376c-0.658-0.169-1.104,0.411-1.278,0.896L75.981,12.89z"></path>
		<path fill="#17408F" d="M80.323,17.128l-0.873-0.312l0.868-2.433c0.21-0.586,0.191-1.153-0.402-1.366
			c-0.43-0.153-1.016,0.037-1.252,0.699l-0.893,2.5l-0.873-0.312l1.064-2.982c0.164-0.459,0.275-0.818,0.387-1.178l0.76,0.271
			l-0.175,0.635l0.022,0.007c0.322-0.283,0.885-0.481,1.51-0.259c0.648,0.232,1.22,0.912,0.763,2.191L80.323,17.128z"></path>
		<path fill="#17408F" d="M86.552,20.093l-0.803-0.399l1.026-2.367c0.334-0.763,0.712-1.629,1.058-2.306l-0.022-0.012
			c-0.485,0.563-1.049,1.158-1.623,1.739l-2.053,2.079l-0.623-0.31l0.458-2.81c0.135-0.827,0.298-1.639,0.489-2.365l-0.021-0.012
			c-0.354,0.674-0.827,1.52-1.251,2.265l-1.248,2.202l-0.773-0.385l3.102-5.301l1.031,0.513l-0.427,2.798
			c-0.135,0.773-0.272,1.465-0.436,2.133l0.021,0.012c0.428-0.52,0.91-1.058,1.464-1.631l1.991-2.012l1.039,0.518L86.552,20.093z"></path>
		<path fill="#17408F" d="M88.117,21.135l-0.79-0.486l2.313-3.759l0.79,0.486L88.117,21.135z M90.385,16.561
			c-0.271-0.167-0.329-0.485-0.175-0.737c0.163-0.265,0.476-0.345,0.748-0.178c0.272,0.168,0.335,0.479,0.171,0.744
			C90.975,16.642,90.672,16.736,90.385,16.561z"></path>
		<path fill="#17408F" d="M92.021,23.835l-0.753-0.541l1.507-2.098c0.364-0.506,0.503-1.056-0.01-1.424
			c-0.37-0.266-0.985-0.246-1.396,0.326l-1.549,2.154l-0.754-0.541l1.848-2.57c0.285-0.396,0.491-0.71,0.697-1.024l0.655,0.471
			l-0.343,0.561l0.019,0.014c0.389-0.184,0.984-0.218,1.522,0.169c0.559,0.4,0.921,1.213,0.127,2.315L92.021,23.835z"></path>
		<path fill="#17408F" d="M99.027,26.795c-1.257,1.31-2.441,1.237-3.383,0.334c-0.905-0.87-1.007-1.988,0.257-3.304l2.527-2.631
			l0.669,0.643l-2.565,2.672c-0.849,0.882-0.845,1.606-0.338,2.094c0.555,0.532,1.267,0.484,2.108-0.393l2.567-2.672l0.669,0.643
			L99.027,26.795z"></path>
		<path fill="#17408F" d="M100.361,32.174l-0.598-0.71l1.975-1.665c0.478-0.402,0.748-0.901,0.341-1.385
			c-0.295-0.349-0.896-0.479-1.435-0.026L98.613,30.1l-0.598-0.71l2.423-2.041c0.373-0.314,0.649-0.569,0.927-0.823l0.521,0.617
			l-0.471,0.46l0.017,0.019c0.421-0.084,1.008,0.029,1.435,0.536c0.443,0.527,0.596,1.402-0.443,2.278L100.361,32.174z"></path>
		<path fill="#17408F" d="M101.532,33.804l-0.547-0.751l3.57-2.6l0.546,0.751L101.532,33.804z M105.372,30.433
			c-0.188-0.258-0.121-0.574,0.118-0.749c0.252-0.183,0.571-0.139,0.76,0.12c0.188,0.258,0.128,0.57-0.125,0.754
			C105.886,30.731,105.569,30.704,105.372,30.433z"></path>
		<path fill="#17408F" d="M107.784,35.315l-4.569,1.018l-0.475-0.75l2.896-3.66l0.535,0.845l-1.595,1.861
			c-0.261,0.306-0.52,0.584-0.788,0.849l0.015,0.02c0.353-0.129,0.712-0.233,1.097-0.344l2.366-0.656L107.784,35.315z"></path>
		<path fill="#17408F" d="M105.962,40.942c-0.271-0.211-0.603-0.589-0.879-1.122c-0.61-1.179-0.175-2.27,1.019-2.888
			c1.164-0.604,2.434-0.432,3.008,0.677c0.57,1.101-0.117,2.016-1.083,2.516c-0.136,0.07-0.253,0.122-0.359,0.159l-1.288-2.485
			c-0.87,0.477-0.92,1.197-0.601,1.815c0.226,0.433,0.457,0.691,0.696,0.891L105.962,40.942z M107.864,39.22
			c0.472-0.236,0.955-0.729,0.627-1.362c-0.313-0.604-1.041-0.551-1.518-0.357L107.864,39.22z"></path>
		<path fill="#17408F" d="M110.399,42.595c-0.017-0.078-0.043-0.163-0.085-0.258c-0.245-0.574-0.87-0.732-1.575-0.43l-2.146,0.919
			l-0.365-0.852l2.813-1.206c0.471-0.202,0.856-0.375,1.223-0.559l0.317,0.742l-0.729,0.348l0.013,0.029
			c0.593-0.037,1.092,0.254,1.281,0.695c0.033,0.08,0.052,0.143,0.068,0.222L110.399,42.595z"></path>
		<path fill="#17408F" d="M111.418,45.45c0.047-0.203,0.073-0.535-0.048-0.874c-0.139-0.392-0.439-0.522-0.719-0.424
			c-0.286,0.103-0.362,0.342-0.401,0.924c-0.035,0.784-0.284,1.28-0.887,1.494c-0.798,0.284-1.49-0.157-1.824-1.1
			c-0.155-0.437-0.19-0.892-0.124-1.229l0.719-0.033c-0.053,0.256-0.067,0.693,0.059,1.048c0.166,0.468,0.472,0.612,0.789,0.5
			c0.316-0.112,0.428-0.347,0.462-0.919c0.031-0.843,0.331-1.314,0.813-1.486c0.693-0.246,1.444,0.124,1.754,0.998
			c0.146,0.406,0.158,0.801,0.111,1.072L111.418,45.45z"></path>
		<path fill="#17408F" d="M108.666,48.7l-0.259-0.892l4.243-1.236l0.259,0.892L108.666,48.7z M113.425,46.83
			c-0.091-0.308,0.08-0.581,0.364-0.665c0.3-0.087,0.585,0.063,0.674,0.37c0.091,0.308-0.072,0.581-0.372,0.668
			C113.807,47.286,113.519,47.153,113.425,46.83z"></path>
		<path fill="#17408F" d="M114.063,48.738l0.492,0.827l-1.058,0.252l0.242,1.018l-0.677,0.161l-0.241-1.019l-2.17,0.515
			c-0.528,0.126-0.746,0.35-0.655,0.73c0.042,0.18,0.091,0.282,0.148,0.384l-0.686,0.195c-0.099-0.141-0.194-0.372-0.267-0.676
			c-0.085-0.357-0.04-0.688,0.125-0.925c0.182-0.272,0.517-0.459,1.075-0.592l2.216-0.526l-0.144-0.606l0.676-0.16l0.145,0.606
			L114.063,48.738z"></path>
		<path fill="#17408F" d="M114.518,55.29l-3.19-0.561c-1.514-0.281-2.379-0.514-2.97-0.954c-0.428-0.336-0.644-0.715-0.726-0.92
			l0.736-0.363c0.493,0.894,1.435,1.09,1.553,1.07c0.048-0.008,0.102-0.024,0.183-0.079l3.771-2.146l0.163,1.004l-2.321,1.188
			c-0.271,0.133-0.588,0.273-0.831,0.379l0.004,0.023c0.264,0.021,0.601,0.056,0.906,0.088l2.564,0.306L114.518,55.29z"></path>
		<path fill="#17408F" d="M112.746,61.972c-1.648,0.059-2.366-0.989-2.401-1.98c-0.04-1.145,0.769-2.046,2.191-2.097
			c1.488-0.053,2.361,0.83,2.402,1.998C114.981,61.101,114.096,61.925,112.746,61.972z M114.241,59.885
			c-0.027-0.792-0.886-1.065-1.646-1.039c-0.864,0.03-1.578,0.464-1.554,1.145c0.024,0.672,0.767,1.063,1.646,1.03
			C113.416,60.995,114.269,60.661,114.241,59.885z"></path>
		<path fill="#17408F" d="M114.853,63.163c0.479,0.02,1.19,0.048,1.667,0.563c0.284,0.316,0.379,0.729,0.365,1.088
			c-0.012,0.287-0.077,0.51-0.146,0.667l-0.708-0.124c0.053-0.119,0.099-0.253,0.106-0.469c0.023-0.575-0.489-0.771-1.081-0.795
			l-0.239-0.01l-0.039,0.967l-0.695-0.027l0.038-0.959l-3.709-0.148l0.037-0.927l3.709,0.147l0.023-0.591l0.695,0.027
			L114.853,63.163z"></path>
		<path fill="#17408F" d="M109.729,71.153c-0.086-0.272-0.132-0.807-0.029-1.463c0.263-1.685,1.554-2.641,3.484-2.34
			c2.056,0.321,2.977,1.794,2.714,3.471c-0.108,0.695-0.325,1.1-0.438,1.252l-0.72-0.315c0.157-0.234,0.316-0.574,0.386-1.025
			c0.184-1.17-0.471-2.164-2.045-2.409c-1.487-0.232-2.438,0.412-2.634,1.662c-0.064,0.411-0.043,0.844,0.043,1.125L109.729,71.153z
			"></path>
		<path fill="#17408F" d="M108.497,75.348l0.232-0.897l2.493,0.644c0.612,0.158,1.177,0.081,1.333-0.523
			c0.114-0.441-0.129-1.008-0.771-1.174l-2.609-0.673l0.232-0.899l6.211,1.604l-0.232,0.898l-2.524-0.651l-0.004,0.016
			c0.369,0.393,0.478,0.933,0.357,1.396c-0.165,0.643-0.792,1.275-2.14,0.927L108.497,75.348z"></path>
		<path fill="#17408F" d="M107.86,77.23l0.293-0.879l4.187,1.396l-0.293,0.88L107.86,77.23z M112.831,78.4
			c0.101-0.304,0.397-0.433,0.678-0.339c0.295,0.099,0.445,0.385,0.344,0.688c-0.102,0.304-0.391,0.436-0.686,0.337
			C112.886,78.992,112.724,78.72,112.831,78.4z"></path>
		<path fill="#17408F" d="M106.122,81.649l0.355-0.857l2.387,0.988c0.577,0.24,1.145,0.25,1.387-0.334
			c0.174-0.422,0.014-1.017-0.636-1.286l-2.455-1.017l0.355-0.857l2.927,1.213c0.451,0.187,0.805,0.316,1.158,0.445l-0.31,0.746
			l-0.625-0.207l-0.009,0.022c0.269,0.336,0.438,0.909,0.184,1.522c-0.264,0.636-0.971,1.174-2.228,0.652L106.122,81.649z"></path>
		<path fill="#17408F" d="M105.161,85.824c-0.332-0.175-0.678-0.346-0.959-0.431l0.391-0.744l0.483,0.182l0.012-0.021
			c-0.191-0.38-0.217-0.882,0.039-1.371c0.383-0.73,1.141-0.867,1.744-0.551c0.972,0.51,1.013,1.605,0.31,2.946
			c0.291,0.152,0.873,0.456,1.285-0.33c0.183-0.349,0.262-0.759,0.229-1.093l0.635,0.117c0.033,0.369-0.061,0.908-0.334,1.433
			c-0.603,1.149-1.528,1.07-2.358,0.636L105.161,85.824z M106.616,85.565c0.339-0.646,0.608-1.453-0.087-1.818
			c-0.433-0.226-0.766-0.057-0.926,0.248c-0.233,0.447-0.087,0.994,0.367,1.232L106.616,85.565z"></path>
</svg>